<?xml version="1.0" encoding="utf-8"?>
<!-- Generator: Adobe Illustrator 25.4.1, SVG Export Plug-In . SVG Version: 6.00 Build 0)  -->
<svg version="1.1" id="레이어_1" xmlns="http://www.w3.org/2000/svg" xmlns:xlink="http://www.w3.org/1999/xlink" x="0px"
	 y="0px" viewBox="0 0 311 311" style="enable-background:new 0 0 311 311;" xml:space="preserve">
<style type="text/css">
	.st0{fill:#FFFFFF;}
</style>
<path class="st0" d="M16.1,311c-4.1,0-8.2-1.6-11.3-4.7c-6.2-6.2-6.2-16.4,0-22.6l279-279c6.2-6.2,16.4-6.2,22.6,0s6.2,16.4,0,22.6
	l-279,279C24.3,309.4,20.2,311,16.1,311z"/>
<path class="st0" d="M295.1,311c-4.1,0-8.2-1.6-11.3-4.7l-279-279c-6.2-6.3-6.2-16.4,0-22.6s16.4-6.2,22.6,0l279,279
	c6.2,6.2,6.2,16.4,0,22.6C303.2,309.4,299.2,311,295.1,311z"/>
</svg>
