<?xml version="1.0" encoding="iso-8859-1"?>
<!-- Generator: Adobe Illustrator 19.0.0, SVG Export Plug-In . SVG Version: 6.00 Build 0)  -->
<svg version="1.1" id="Capa_1" xmlns="http://www.w3.org/2000/svg" xmlns:xlink="http://www.w3.org/1999/xlink" x="0px" y="0px"
	 viewBox="0 0 512 512" style="enable-background:new 0 0 512 512;" xml:space="preserve">
<g>
	<g>
		<path d="M369.324,235.336L39.109,10.189C31.445,4.952,21.514,4.41,13.325,8.738C5.128,13.066,0,21.58,0,30.853v450.293
			c0,9.281,5.128,17.787,13.325,22.114c3.669,1.943,7.688,2.902,11.691,2.902c4.937,0,9.865-1.468,14.092-4.336l330.215-225.147
			c6.838-4.661,10.924-12.391,10.924-20.672S376.153,239.997,369.324,235.336z M50.033,433.807V78.183l260.786,177.816
			L50.033,433.807z"/>
	</g>
</g>
<g>
	<g>
		<path d="M486.984,34.188c-13.817,0-25.016,11.199-25.016,25.016v393.59c0,13.817,11.199,25.016,25.016,25.016
			c13.826,0,25.016-11.199,25.016-25.016V59.204C512,45.387,500.801,34.188,486.984,34.188z"/>
	</g>
</g>
<g>
</g>
<g>
</g>
<g>
</g>
<g>
</g>
<g>
</g>
<g>
</g>
<g>
</g>
<g>
</g>
<g>
</g>
<g>
</g>
<g>
</g>
<g>
</g>
<g>
</g>
<g>
</g>
<g>
</g>
</svg>
