<?xml version="1.0" encoding="iso-8859-1"?>
<!-- Generator: Adobe Illustrator 19.0.0, SVG Export Plug-In . SVG Version: 6.00 Build 0)  -->
<svg version="1.1" id="Capa_1" xmlns="http://www.w3.org/2000/svg" xmlns:xlink="http://www.w3.org/1999/xlink" x="0px" y="0px"
	 viewBox="0 0 512 512" style="enable-background:new 0 0 512 512;" xml:space="preserve">
<g>
	<g>
		<path d="M122.117,140.878H38.161C16.766,140.878,0,157.644,0,179.04v154.554c0,21.396,16.766,38.161,38.161,38.161h83.955
			c10.539,0,19.081-8.535,19.081-19.081V159.959C141.198,149.42,132.656,140.878,122.117,140.878z M103.036,333.594H38.161
			l-0.293-154.529c0,0,0.089-0.025,0.293-0.025h64.875V333.594z"/>
	</g>
</g>
<g>
	<g>
		<path d="M289.156,64.803c-5.68-3.46-12.765-3.721-18.667-0.674L117.2,142.996l17.459,33.932l125.475-64.557v287.261
			l-125.475-64.563L117.2,369.008l153.288,78.867c2.741,1.412,5.737,2.112,8.726,2.112c3.454,0,6.895-0.935,9.935-2.792
			c5.68-3.46,9.146-9.636,9.146-16.289V81.092C298.296,74.439,294.836,68.263,289.156,64.803z"/>
	</g>
</g>
<g>
	<g>
		<path d="M343.453,179.669c-10.539,0-19.081,8.542-19.081,19.081s8.542,19.081,19.081,19.081c24.9,0,45.158,20.257,45.158,45.158
			s-20.257,45.164-45.158,45.164c-10.539,0-19.081,8.542-19.081,19.081s8.542,19.081,19.081,19.081
			c45.946,0,83.319-37.379,83.319-83.326S389.4,179.669,343.453,179.669z"/>
	</g>
</g>
<g>
	<g>
		<path d="M343.453,94.442c-10.539,0-19.081,8.542-19.081,19.081c0,10.539,8.542,19.081,19.081,19.081
			c71.896,0,130.385,58.489,130.385,130.385c0,72.252-58.489,131.027-130.385,131.027c-10.539,0-19.081,8.542-19.081,19.081
			c0,10.539,8.542,19.081,19.081,19.081c92.936,0,168.547-75.891,168.547-169.189C512,170.053,436.389,94.442,343.453,94.442z"/>
	</g>
</g>
<g>
</g>
<g>
</g>
<g>
</g>
<g>
</g>
<g>
</g>
<g>
</g>
<g>
</g>
<g>
</g>
<g>
</g>
<g>
</g>
<g>
</g>
<g>
</g>
<g>
</g>
<g>
</g>
<g>
</g>
</svg>
